Coordinates
version=1
nRows=60
nColumns=12
inDegrees=yes

Units are S.I. units (second, meters, Newtons, ...)
Angles are in degrees

endheader
time	SC_y	SC_z	SC_x	AC_y	AC_z	AC_x	GH_y	GH_z	GH_yy	EL_x	PS_y
       0.0              -40.97          24.24          46.46          43.08         -9.635         -8.931         -167.7          22.62          -71.6          126.3           81.2
    0.0395              -40.97          24.24          46.46          43.08         -9.633         -8.929         -167.7          22.62         -71.58          126.3           81.2
     0.079              -40.97          24.24          46.45          43.08         -9.632         -8.926         -167.6          22.63         -71.55          126.3          81.19
    0.1185              -40.97          24.24          46.45          43.08          -9.63         -8.922         -167.6          22.63         -71.52          126.3          81.19
     0.158              -40.97          24.24          46.45          43.08         -9.628         -8.919         -167.5          22.63          -71.5          126.3          81.18
    0.1975              -40.97          24.24          46.44          43.08         -9.626         -8.916         -167.4          22.63         -71.46          126.3          81.18
     0.237              -40.97          24.24          46.44          43.08         -9.624         -8.912         -167.4          22.63         -71.43          126.3          81.17
    0.2765              -40.97          24.24          46.43          43.08         -9.622         -8.908         -167.3          22.63          -71.4          126.3          81.17
     0.316              -40.97          24.25          46.43          43.08         -9.619         -8.903         -167.2          22.64         -71.36          126.3          81.16
    0.3555              -40.97          24.25          46.42          43.09         -9.617         -8.899         -167.1          22.64         -71.32          126.3          81.15
     0.395              -40.96          24.25          46.42          43.09         -9.614         -8.894         -167.0          22.64         -71.28          126.3          81.15
    0.4345              -40.96          24.25          46.41          43.09         -9.611         -8.888         -166.9          22.65         -71.23          126.3          81.14
     0.474              -40.96          24.25           46.4          43.09         -9.608         -8.883         -166.8          22.65         -71.18          126.3          81.13
    0.5135              -40.96          24.25           46.4          43.09         -9.605         -8.876         -166.7          22.65         -71.12          126.3          81.12
     0.553              -40.96          24.26          46.39           43.1         -9.601          -8.87         -166.6          22.66         -71.07          126.3          81.11
    0.5925              -40.96          24.26          46.38           43.1         -9.597         -8.862         -166.5          22.66          -71.0          126.3           81.1
     0.632              -40.95          24.26          46.37           43.1         -9.592         -8.854         -166.3          22.66         -70.93          126.3          81.09
    0.6715              -40.95          24.26          46.36           43.1         -9.588         -8.846         -166.2          22.67         -70.86          126.3          81.08
     0.711              -40.95          24.27          46.35          43.11         -9.583         -8.836         -166.0          22.67         -70.77          126.3          81.07
    0.7505              -40.95          24.27          46.34          43.11         -9.577         -8.826         -165.8          22.68         -70.68          126.3          81.05
      0.79              -40.94          24.28          46.33          43.11         -9.571         -8.814         -165.6          22.69         -70.59          126.3          81.04
    0.8295              -40.94          24.28          46.31          43.12         -9.564         -8.802         -165.4          22.69         -70.48          126.3          81.02
     0.869              -40.93          24.28           46.3          43.12         -9.556         -8.788         -165.1           22.7         -70.36          126.3           81.0
    0.9085              -40.93          24.29          46.28          43.13         -9.548         -8.772         -164.9          22.71         -70.22          126.3          80.98
     0.948              -40.93           24.3          46.26          43.13         -9.538         -8.755         -164.5          22.72         -70.08          126.3          80.95
    0.9875              -40.92           24.3          46.24          43.14         -9.528         -8.736         -164.2          22.73         -69.91          126.3          80.93
     1.027              -40.91          24.31          46.22          43.15         -9.516         -8.715         -163.8          22.74         -69.72          126.3           80.9
     1.066              -40.91          24.32          46.19          43.15         -9.503         -8.691         -163.4          22.76         -69.52          126.3          80.86
     1.106               -40.9          24.33          46.16          43.16         -9.488         -8.664         -162.9          22.77         -69.28          126.3          80.83
     1.145              -40.89          24.34          46.12          43.17         -9.471         -8.633         -162.3          22.79         -69.01          126.3          80.78
     1.185              -40.88          24.35          46.08          43.19         -9.452         -8.598         -161.7          22.81         -68.71          126.3          80.73
     1.224              -40.87          24.36          46.04           43.2          -9.43         -8.557         -161.0          22.83         -68.36          126.3          80.68
     1.264              -40.86          24.38          45.99          43.21         -9.404         -8.511         -160.1          22.86         -67.95          126.3          80.61
     1.303              -40.84          24.39          45.92          43.23         -9.375         -8.456         -159.2          22.89         -67.48          126.3          80.53
     1.343              -40.83          24.42          45.85          43.25          -9.34         -8.393         -158.0          22.92         -66.93          126.3          80.45
     1.382              -40.81          24.44          45.77          43.28         -9.299         -8.318         -156.7          22.96         -66.29          126.2          80.34
     1.422              -40.78          24.47          45.67          43.31          -9.25         -8.229         -155.1          23.01         -65.52          126.2          80.22
     1.461              -40.75          24.51          45.55          43.34         -9.192         -8.123         -153.2          23.07         -64.59          126.2          80.07
     1.501              -40.72          24.55           45.4          43.38         -9.122         -7.994         -150.8          23.14         -63.48          126.2          79.89
      1.54              -40.67           24.6          45.23          43.43         -9.035         -7.837         -148.0          23.23         -62.11          126.2          79.67
      1.58              -40.62          24.67          45.01           43.5         -8.929         -7.643         -144.5          23.34         -60.43          126.2          79.39
     1.619              -40.56          24.75          44.74          43.58         -8.796           -7.4         -140.1          23.47         -58.33          126.1          79.06
     1.659              -40.47          24.85          44.39          43.68         -8.629         -7.095         -134.7          23.64         -55.69          126.1          78.63
     1.698              -40.37          24.98          43.96           43.8         -8.417         -6.707         -127.7          23.86         -52.32          126.1          78.08
     1.738              -40.23          25.15           43.4          43.97         -8.145         -6.211         -118.7          24.13         -48.02          126.0          77.39
     1.777              -40.06          25.36          42.68          44.17         -7.796         -5.574         -107.3          24.49          -42.5          126.0           76.5
     1.817              -39.83          25.63          41.77          44.44         -7.351          -4.76         -92.61          24.94         -35.45          125.9          75.36
     1.856              -39.55          25.97          40.62          44.77         -6.791         -3.737         -74.18          25.51         -26.58          125.8          73.92
     1.896              -39.21          26.39          39.21          45.18         -6.108          -2.49         -51.73           26.2         -15.77          125.6          72.18
     1.935              -38.82          26.87          37.59          45.66         -5.316         -1.045         -25.71           27.0         -3.244          125.5          70.15
     1.975              -38.39          27.39          35.83          46.17         -4.459         0.5197          2.472          27.87          10.32          125.3          67.96
     2.014              -37.96          27.92          34.07          46.68         -3.603          2.085          30.65          28.74          23.88          125.1          65.77
     2.054              -37.56           28.4          32.44          47.15         -2.811           3.53          56.68          29.55          36.41          125.0          63.74
     2.093              -37.22          28.82          31.04          47.56         -2.128          4.777          79.13          30.24          47.22          124.9          61.99
     2.133              -36.94          29.16          29.89          47.89         -1.568            5.8          97.55          30.81          56.09          124.8          60.56
     2.172              -36.72          29.43          28.97          48.16         -1.123          6.613          112.2          31.26          63.14          124.7          59.42
     2.212              -36.55          29.64          28.26          48.37        -0.7738          7.251          123.7          31.62          68.66          124.6          58.53
     2.251              -36.41          29.81           27.7          48.53         -0.502          7.747          132.6          31.89          72.97          124.6          57.83
     2.291               -36.3          29.94          27.26          48.66        -0.2896          8.135          139.6          32.11          76.33          124.5          57.29
      2.33              -36.22          30.04          26.92          48.76        -0.1226           8.44          145.1          32.28          78.97          124.5          56.86
